<?xml version="1.0" encoding="UTF-8"?> <svg xmlns="http://www.w3.org/2000/svg" width="109.228" height="65.607" viewBox="0 0 109.228 65.607"><g id="aws_3305a1fe3" transform="translate(-0.352 -0.52)"><path id="Path_1" data-name="Path 1" d="M31.139,24.347a11.086,11.086,0,0,0,.4,3.248A19.568,19.568,0,0,0,32.7,30.221a1.593,1.593,0,0,1,.254.839,1.446,1.446,0,0,1-.69,1.095l-2.289,1.532a1.737,1.737,0,0,1-.944.328,1.668,1.668,0,0,1-1.09-.511,11.281,11.281,0,0,1-1.308-1.715c-.363-.62-.727-1.314-1.126-2.153a13.4,13.4,0,0,1-10.68,5.035,9.928,9.928,0,0,1-7.265-2.627A9.4,9.4,0,0,1,4.875,25.04a9.412,9.412,0,0,1,3.306-7.517c2.216-1.9,5.158-2.846,8.9-2.846a28.643,28.643,0,0,1,3.851.292c1.344.182,2.725.474,4.178.8V13.108c0-2.773-.581-4.707-1.707-5.838-1.162-1.131-3.124-1.678-5.921-1.678a16.459,16.459,0,0,0-3.923.474A28.851,28.851,0,0,0,9.634,7.306a10.394,10.394,0,0,1-1.271.474,2.219,2.219,0,0,1-.581.109c-.509,0-.763-.365-.763-1.131V4.971a2.317,2.317,0,0,1,.254-1.277A2.722,2.722,0,0,1,8.29,2.928a20.853,20.853,0,0,1,4.577-1.642A21.932,21.932,0,0,1,18.534.593c4.323,0,7.483.985,9.517,2.956,2,1.97,3.015,4.962,3.015,8.976V24.347ZM16.39,29.893a11.724,11.724,0,0,0,3.742-.657A8.093,8.093,0,0,0,23.583,26.9a5.8,5.8,0,0,0,1.235-2.335,13.153,13.153,0,0,0,.363-3.174V19.858a30.234,30.234,0,0,0-3.342-.62,27.264,27.264,0,0,0-3.415-.219c-2.434,0-4.214.474-5.413,1.459a5.1,5.1,0,0,0-1.78,4.2,5.107,5.107,0,0,0,1.344,3.868A5.025,5.025,0,0,0,16.39,29.893Zm29.17,3.941a2.022,2.022,0,0,1-1.38-.365,2.978,2.978,0,0,1-.763-1.423L34.881,3.84a6.415,6.415,0,0,1-.327-1.46.8.8,0,0,1,.872-.912h3.56a2.007,2.007,0,0,1,1.417.365,2.989,2.989,0,0,1,.726,1.423l6.1,24.156L52.9,3.256a2.563,2.563,0,0,1,.69-1.423,2.49,2.49,0,0,1,1.453-.365h2.906a2.179,2.179,0,0,1,1.453.365,2.463,2.463,0,0,1,.69,1.423L65.831,27.7,72.115,3.256a3.134,3.134,0,0,1,.726-1.423,2.362,2.362,0,0,1,1.417-.365h3.378a.809.809,0,0,1,.908.912,3.646,3.646,0,0,1-.073.584,5.208,5.208,0,0,1-.254.912L69.464,32.082a2.8,2.8,0,0,1-.763,1.423,2.316,2.316,0,0,1-1.38.365H64.2a2.179,2.179,0,0,1-1.453-.365,2.592,2.592,0,0,1-.69-1.46L56.422,8.511l-5.594,23.5a2.853,2.853,0,0,1-.69,1.46,2.244,2.244,0,0,1-1.453.365Zm46.68.985a23.941,23.941,0,0,1-5.594-.657,16.481,16.481,0,0,1-4.178-1.46,2.622,2.622,0,0,1-1.126-1.022,2.585,2.585,0,0,1-.218-1.022V28.8c0-.766.291-1.131.836-1.131a2.048,2.048,0,0,1,.654.109c.218.073.545.219.908.365a19.692,19.692,0,0,0,4,1.277,21.723,21.723,0,0,0,4.323.438,9.767,9.767,0,0,0,5.3-1.2,3.934,3.934,0,0,0,1.889-3.466,3.562,3.562,0,0,0-.981-2.554,9.1,9.1,0,0,0-3.669-1.9l-5.267-1.642A11.076,11.076,0,0,1,83.3,15.37a8.719,8.719,0,0,1-1.816-5.291,8.15,8.15,0,0,1,.981-4.05,9.369,9.369,0,0,1,2.616-2.992,11.51,11.51,0,0,1,3.778-1.9A15.767,15.767,0,0,1,93.439.52a18.157,18.157,0,0,1,2.434.146c.835.109,1.6.255,2.361.4.727.182,1.417.365,2.071.584a7.89,7.89,0,0,1,1.525.657,3.142,3.142,0,0,1,1.09.912,1.973,1.973,0,0,1,.327,1.2V6.139c0,.766-.291,1.168-.835,1.168a3.769,3.769,0,0,1-1.381-.438,16.554,16.554,0,0,0-6.974-1.423,9.342,9.342,0,0,0-4.831,1.022,3.527,3.527,0,0,0-1.707,3.247,3.453,3.453,0,0,0,1.09,2.591,10.835,10.835,0,0,0,4,2.007l5.158,1.642a11.043,11.043,0,0,1,5.63,3.5,8.276,8.276,0,0,1,1.671,5.108,9.422,9.422,0,0,1-.944,4.233,9.807,9.807,0,0,1-2.652,3.211,11.69,11.69,0,0,1-4.032,2.043A17.2,17.2,0,0,1,92.24,34.819Z" fill="#fff"></path><path id="Path_2" data-name="Path 2" d="M99.1,52.552C87.147,61.419,69.783,66.126,54.853,66.126A79.845,79.845,0,0,1,.835,45.437c-1.126-1.022-.109-2.408,1.235-1.605A108.565,108.565,0,0,0,56.124,58.245a107.453,107.453,0,0,0,41.231-8.465C99.353,48.867,101.06,51.093,99.1,52.552Z" fill="#fff" fill-rule="evenodd"></path><path id="Path_3" data-name="Path 3" d="M104.081,46.861c-1.526-1.97-10.1-.949-13.986-.474-1.162.146-1.344-.876-.291-1.642,6.829-4.817,18.055-3.43,19.362-1.824,1.308,1.642-.363,12.917-6.756,18.317-.981.839-1.926.4-1.49-.693C102.373,56.931,105.606,48.794,104.081,46.861Z" fill="#fff" fill-rule="evenodd"></path></g></svg> 