<?xml version="1.0" encoding="UTF-8"?> <svg xmlns="http://www.w3.org/2000/svg" width="135.339" height="32.287" viewBox="0 0 135.339 32.287"><g id="Axure-RP-icon" transform="translate(-0.656 -0.726)"><path id="Path_1" data-name="Path 1" d="M123.63.726c-5.527,0-8.651,1.067-10.448,3.568-1.873,2.615-2.252,6.74-2.252,12.549,0,11.4,1.765,16.171,12.695,16.171,1.315,0,5.8-.027,8.424-.347a1.666,1.666,0,0,0,1.478-1.646V29.759a1.686,1.686,0,0,0-1.722-1.722H123.63c-6.166,0-7.281-1.456-7.438-9.718V15.646c.054-8.456,1.164-9.945,7.438-9.945,5.788,0,6.9,1.321,7.087,8.765h-9.193V19.5h12.089c2.382,0,2.382-1.667,2.382-2.214v-1.6C135.822,4.077,133.05.726,123.63.726Zm-15.921.444-.13-.032a41.275,41.275,0,0,0-5.728-.406c-5.4,0-8.25,2.263-8.25,6.54V31.08a1.6,1.6,0,0,0,1.667,1.667H97.19a1.592,1.592,0,0,0,1.667-1.667V7.7c0-1.056.265-2,3.487-2l4.769-.005a1.64,1.64,0,0,0,1.256-.363,1.657,1.657,0,0,0,.579-1.3V2.821A1.683,1.683,0,0,0,107.709,1.17ZM84.652,1.11H82.73a1.594,1.594,0,0,0-1.667,1.667V28.043H73.077c-4.943,0-6.946-.314-6.946-8.185V2.772A1.6,1.6,0,0,0,64.464,1.1H62.6a1.658,1.658,0,0,0-1.722,1.667v17.08c0,11.19,4.06,13.161,12.587,13.161a82.176,82.176,0,0,0,11.277-.563l.092-.016a1.675,1.675,0,0,0,1.494-1.684V2.772A1.6,1.6,0,0,0,84.652,1.11Z" fill="#fff" fill-rule="evenodd"></path><path id="Path_2" data-name="Path 2" d="M54.954,1.89a1.5,1.5,0,0,0-1.413-.839H51.072a1.644,1.644,0,0,0-1.537.807L45.875,7.2l3.2,4.38,5.592-8.023A1.51,1.51,0,0,0,54.954,1.89Z" fill="#fff" fill-rule="evenodd"></path><path id="Path_3" data-name="Path 3" d="M35.658,1.8a1.811,1.811,0,0,0-1.548-.753H31.7a1.521,1.521,0,0,0-1.391.78,1.594,1.594,0,0,0,.162,1.678l8.943,12.4L29.124,30.252a1.575,1.575,0,0,0-.141,1.646,1.52,1.52,0,0,0,1.391.78h2.469a1.656,1.656,0,0,0,1.472-.85L45.831,15.965Z" fill="#fff" fill-rule="evenodd"></path><path id="Path_4" data-name="Path 4" d="M56.186,30.382l-7.179-9.847-3.156,4.353,5.674,7.574.146.065a1.737,1.737,0,0,0,.715.157H54.8a1.554,1.554,0,0,0,1.359-.709A1.6,1.6,0,0,0,56.186,30.382Z" fill="#fff" fill-rule="evenodd"></path><path id="Path_5" data-name="Path 5" d="M19.637,19.273v8.364a60.808,60.808,0,0,1-7.438.46c-5.614,0-6.231-1.532-6.231-4.791,0-3.048,1.142-4.028,4.694-4.028ZM11.927.726a56.723,56.723,0,0,0-7.049.4l-.135.027A1.608,1.608,0,0,0,3.45,2.826v1.2A1.547,1.547,0,0,0,5.117,5.7h6.8c5.479,0,7.715,1.483,7.715,5.121v3.535H10.666C3.65,14.352.656,17.032.656,23.3c0,6.989,3.1,9.712,11.049,9.712,3.221,0,9.149-.249,11.342-.92a2.255,2.255,0,0,0,1.846-2.388V10.492C24.9,3.92,20.654.726,11.927.726Z" fill="#fff" fill-rule="evenodd"></path></g></svg> 