<?xml version="1.0" encoding="UTF-8"?> <svg xmlns="http://www.w3.org/2000/svg" width="32" height="33" viewBox="0 0 32 33" fill="none"><path d="M17.6559 0.305289C17.0813 0.427071 16.438 0.74558 16.3256 0.967287C16.285 1.04223 16.2882 1.05784 16.3412 1.10781C16.3756 1.13903 16.4942 1.21398 16.6067 1.27331C16.7191 1.33264 16.8128 1.39197 16.8128 1.40133C16.8128 1.4107 16.5786 1.42944 16.2913 1.44193C14.4396 1.51375 11.4137 1.80728 9.93047 2.05709C8.20366 2.34437 7.51355 2.58793 6.57052 3.23432C3.65398 5.2328 1.40256 10.1041 0.796769 15.7311C0.684354 16.7584 0.65625 17.3486 0.65625 18.5259C0.65625 19.6469 0.681231 20.1371 0.781155 21.0552C1.0216 23.2442 1.58055 25.1833 2.42054 26.7321C4.12237 29.8704 7.39802 31.9032 11.6604 32.4653C12.5285 32.5808 12.9719 32.6058 14.0024 32.6058C15.1859 32.6058 15.7261 32.5683 16.8908 32.4028C19.6356 32.0125 22.4991 30.9383 24.7286 29.4582C27.7326 27.4691 29.7779 24.8148 30.6897 21.7172C31.2424 19.8467 31.4735 18.301 31.4735 16.5118C31.4673 12.7146 30.1402 9.18606 27.642 6.33822C26.9925 5.60128 25.9059 4.61765 25.1439 4.08055C24.966 3.95565 24.7161 3.76829 24.5881 3.66212C24.3102 3.43105 23.6857 3.00324 23.2953 2.77529C22.9425 2.56608 21.9026 2.04772 21.3281 1.78854C20.1321 1.25457 19.2141 0.80491 18.6863 0.502015C18.2023 0.2241 18.1149 0.205364 17.6559 0.305289ZM16.31 3.28428C17.278 3.48413 17.9525 3.76829 19.8729 4.78939L20.5755 5.16098H20.8566C21.1688 5.16098 21.4093 5.09853 21.8683 4.90181L22.1306 4.78939L22.3211 4.88932C23.7762 5.64499 24.8348 6.29762 25.3532 6.75665C25.8028 7.15635 26.0558 7.4124 26.521 7.93701C26.7177 8.15871 27.2267 8.85506 27.4172 9.1642C28.3821 10.7162 28.9504 12.393 29.1659 14.3259C29.2221 14.8443 29.2502 16.3088 29.2096 16.7616C29.1378 17.5797 29.1066 17.8326 29.0035 18.4166C28.1885 23.0943 25.2626 27.3067 21.5748 29.1116C20.5224 29.6237 19.5357 29.9266 18.1711 30.1545C16.6254 30.4106 14.8174 30.4512 13.1437 30.2638C9.98668 29.911 7.25125 28.7993 5.53693 27.1693C4.75315 26.4199 4.21917 25.5955 3.72892 24.3652C3.21681 23.0787 2.91079 21.6735 2.72343 19.7593C2.66723 19.1847 2.66723 16.6929 2.72343 16.059C2.8983 14.073 3.24804 12.3399 3.80074 10.7193C4.69069 8.11812 5.99908 6.21643 7.62285 5.16411C8.24113 4.76441 9.57449 4.22732 10.8954 3.84636C12.5347 3.37172 13.8712 3.17187 15.2671 3.19373C15.8229 3.20309 15.9821 3.21558 16.31 3.28428Z" fill="white"></path><path d="M10.1709 12.062C9.87114 12.1151 9.6994 12.2025 9.52765 12.3868C9.2716 12.6616 9.15918 12.9769 9.15606 13.436C9.14981 14.5913 10.0398 15.2565 11.1358 14.9192C11.7447 14.7319 12.0632 14.0168 11.8946 13.2174C11.7666 12.6053 11.3263 12.1557 10.758 12.0464C10.5488 12.0089 10.4551 12.0089 10.1709 12.062Z" fill="white"></path><path d="M20.4725 12.265C19.8761 12.4211 19.5294 12.7771 19.4326 13.3267C19.3452 13.8357 19.5294 14.4477 19.8823 14.8037C20.1602 15.0878 20.3538 15.1721 20.7223 15.1721C21.6841 15.1721 22.4397 14.2041 22.1993 13.2798C22.0619 12.7521 21.606 12.3149 21.1033 12.2337C20.8472 12.19 20.7348 12.1963 20.4725 12.265Z" fill="white"></path><path d="M7.14821 17.4142C6.9546 17.4954 6.91401 17.6984 6.97334 18.3104C7.10761 19.6906 7.70716 20.8959 8.75324 21.8889C10.1397 23.2067 12.1038 24.0685 14.452 24.3839C15.1297 24.4745 16.4037 24.4995 17.0938 24.4308C18.9611 24.2528 20.4756 23.7157 21.6841 22.8007C22.4772 22.2043 23.0268 21.5392 23.4327 20.6867C23.7263 20.0747 23.9292 19.3783 23.9823 18.7975C24.0011 18.5914 24.0011 18.5821 23.9167 18.5165C23.7388 18.376 23.5639 18.4603 23.3172 18.8007C22.9394 19.3253 22.2961 20.0029 21.809 20.3963C20.9534 21.0802 19.8386 21.6672 18.8237 21.9608C18.3991 22.0857 17.9369 22.1856 17.4373 22.2637C17.0407 22.323 16.8627 22.3323 16.0009 22.3355C15.2171 22.3355 14.9329 22.323 14.5957 22.2793C13.2498 22.095 12.1756 21.7765 11.0203 21.2144C9.69003 20.5649 8.69391 19.7343 8.13184 18.8069C7.95697 18.5165 7.86017 18.2917 7.72589 17.8764C7.60723 17.5079 7.50731 17.3861 7.32932 17.3892C7.26374 17.3892 7.18255 17.4017 7.14821 17.4142Z" fill="white"></path></svg> 