<?xml version="1.0" encoding="UTF-8"?> <svg xmlns="http://www.w3.org/2000/svg" width="72" height="83" viewBox="0 0 72 83" fill="none"><path d="M53.9204 15.4131C49.7166 12.8051 45.7548 11.7803 41.7898 9.17226C39.3312 7.51291 35.9204 3.56282 33.0669 0.167969C32.5127 5.61877 30.8471 7.83019 28.9427 9.41022C24.8981 12.5703 22.3599 13.5189 18.8726 15.4131C15.9395 16.9138 0 26.394 0 46.7758C0 67.1576 17.207 82.168 36.3185 82.168C55.4299 82.168 72 68.3442 72 47.4104C72 26.4765 56.4586 16.9963 53.9204 15.4163V15.4131ZM54.379 74.731C53.9809 75.1276 50.3344 77.6531 46.0541 78.0497C41.7739 78.4463 35.9841 78.6811 32.4936 75.521C31.9395 74.969 32.0987 74.179 32.4936 73.8617C32.8885 73.5444 33.207 73.3096 33.6815 73.3096C34.156 73.3096 34.0764 73.3096 34.3153 73.4683C35.9013 74.731 38.2803 75.759 43.3535 75.759C48.4267 75.759 51.9968 74.3376 53.5828 73.151C54.2962 72.5989 54.6146 73.0717 54.6943 73.3889C54.7739 73.7062 54.9363 74.179 54.379 74.731ZM40.5032 67.5415C41.3758 66.7515 42.8025 65.4888 44.1497 64.9335C45.4968 64.3783 46.2102 64.4608 47.4809 64.4608C48.7516 64.4608 50.0987 64.5401 51.0478 65.1715C52 65.8029 52.5541 67.2243 52.8726 68.0143C53.1911 68.8043 52.8726 69.277 52.2388 69.5943C51.6847 69.9116 51.6051 69.753 51.0478 68.725C50.4904 67.697 50.0159 66.6722 47.242 66.6722C44.4682 66.6722 43.5955 67.6209 42.2452 68.725C40.8981 69.8323 40.4204 70.2257 39.9459 69.5943C39.4713 68.9629 39.6306 68.3316 40.5032 67.5415ZM61.5159 68.1729C58.6624 67.935 52.9522 59.0893 49.3057 58.9307C44.707 58.772 34.7166 68.4902 26.8662 68.4902C22.1083 68.4902 20.6815 67.7795 19.0955 66.7515C16.7166 65.0922 15.5287 62.5635 15.6051 59.0893C15.6847 52.9278 21.4713 47.1597 28.7675 47.0804C38.0446 47.0011 44.4682 56.2433 49.1465 56.164C53.1115 56.0847 60.7229 48.3432 64.449 48.3432C68.414 48.3432 69.5255 52.4519 69.5255 54.8981C69.5255 57.3443 68.7325 61.7703 66.828 64.5369C64.9236 67.3036 63.7357 68.3316 61.5159 68.1729Z" fill="white"></path></svg> 