<?xml version="1.0" encoding="UTF-8"?> <svg xmlns="http://www.w3.org/2000/svg" width="72" height="80" viewBox="0 0 72 80" fill="none"><path fill-rule="evenodd" clip-rule="evenodd" d="M69.4463 38.1661C67.6622 35.1242 65.1168 32.5982 62.0599 30.8363C59.7261 29.4814 57.3129 28.6208 54.588 28.2485V18.5018C55.9095 17.9548 57.0362 17.0244 57.8226 15.8308C58.6089 14.6372 59.0188 13.2354 58.9991 11.8067C59.0039 10.8418 58.8178 9.88552 58.4516 8.99273C58.0853 8.09994 57.546 7.28824 56.8648 6.60429C56.1835 5.92033 55.3737 5.37759 54.4818 5.00724C53.5899 4.6369 52.6336 4.44626 51.6677 4.44627C49.7113 4.44626 47.8347 5.22095 46.4491 6.60059C45.0634 7.98024 44.2817 9.85232 44.2753 11.8067C44.2753 14.7972 45.8637 17.3483 48.5947 18.5018V28.1936C46.3325 28.5206 44.1376 29.2089 42.0942 30.2321L15.9762 10.4762C16.1595 9.78652 16.3184 9.07245 16.3184 8.32177C16.3184 3.81765 12.6649 0.167969 8.15613 0.167969C3.64735 0.167969 0 3.81765 0 8.32177C0 12.8259 3.65346 16.4756 8.16224 16.4756C9.70182 16.4756 11.1253 16.0239 12.3533 15.2855L14.064 16.5793L37.4938 33.4545C36.2535 34.5897 35.0989 35.8836 34.1763 37.3361C32.3068 40.2961 31.1644 43.5491 31.1644 47.1011V47.8335C31.1726 50.2424 31.607 52.6309 32.4473 54.8887C33.156 56.8173 34.1947 58.5751 35.4838 60.1619L27.7003 67.9556C25.397 67.1011 22.8127 67.6687 21.0715 69.4081C19.8863 70.586 19.2204 72.1912 19.2265 73.8634C19.2326 75.5357 19.8863 77.1286 21.0776 78.3187C22.269 79.5088 23.8636 80.168 25.5375 80.168C27.2115 80.168 28.8183 79.5088 29.9975 78.3187C31.1766 77.1286 31.8486 75.5357 31.8425 73.8634C31.842 73.2215 31.7431 72.5835 31.5493 71.9714L39.5893 63.9397C40.689 64.7026 41.8804 65.3434 43.1633 65.8927C45.8003 67.0481 48.6478 67.6465 51.5272 67.6504H52.077C55.4495 67.6504 58.6325 66.857 61.62 65.2397C64.6909 63.5947 67.271 61.1668 69.098 58.2028C70.9736 55.2122 72 51.8982 72 48.2546V48.0715C72 44.489 71.1691 41.1872 69.434 38.16L69.4463 38.1661ZM59.6283 55.023C57.4473 57.446 54.9363 58.9412 52.1015 58.9412H51.5639C49.9449 58.9412 48.3564 58.4957 46.8107 57.6779C45.1159 56.7975 43.6798 55.4913 42.644 53.8878C41.5199 52.301 40.909 50.5677 40.909 48.7307V48.1814C40.909 46.3749 41.2572 44.6599 42.1308 43.0425C43.0656 41.2116 44.3303 39.8994 46.0104 38.807C47.6905 37.7145 49.4194 37.1896 51.3867 37.1896H51.57C53.3417 37.1896 55.034 37.5375 56.6225 38.3492C58.2317 39.1947 59.5985 40.4361 60.5936 41.9562C61.5789 43.4805 62.1882 45.2166 62.3715 47.0218L62.4143 48.1631C62.4143 50.6471 61.4612 52.9479 59.5611 55.0352L59.6283 55.023Z" fill="white"></path></svg> 