<?xml version="1.0" encoding="UTF-8"?> <svg xmlns="http://www.w3.org/2000/svg" width="64.513" height="54.734" viewBox="0 0 64.513 54.734"><path id="invision-studio" d="M14.657.544a5.719,5.719,0,1,1-5.8,5.717A5.736,5.736,0,0,1,14.657.544Zm38.826,54.7c-5.889,0-8.7-3.5-8.7-8.278a15.135,15.135,0,0,1,.6-4.267l2.817-10.07a10.234,10.234,0,0,0,.427-3.073c0-3.242-1.963-5.205-5.121-5.205-4.012,0-6.657,2.879-8.022,8.427L30.013,54.689H20.455L22.17,47.8c-2.809,4.615-6.711,7.474-11.524,7.474-5.8,0-8.534-3.343-8.534-8.379a19.64,19.64,0,0,1,.512-4.3L6.976,24.822H.234l2.048-7.557H18.5L12.1,42.657a16.087,16.087,0,0,0-.6,3.906c0,1.624.8,2.1,2.049,2.38.761.171,6.826.051,10.128-7.288l4.2-16.833H21.052L23.1,17.265H37.694l-1.877,8.579c2.56-4.78,7.681-9.321,12.716-9.321,5.377,0,9.815,3.83,9.815,11.17a21.632,21.632,0,0,1-.939,6.223l-2.731,9.811a11.322,11.322,0,0,0-.427,2.647c0,1.706.683,2.559,1.964,2.559s2.9-.941,4.779-6.144l3.754,1.45C62.529,52.005,58.518,55.247,53.482,55.247Z" transform="translate(-0.234 -0.544)" fill="#fff"></path></svg> 