<?xml version="1.0" encoding="UTF-8"?> <svg xmlns="http://www.w3.org/2000/svg" width="66" height="65" viewBox="0 0 66 65" fill="none"><path d="M12.3801 32.3395L11.1819 31.1432C7.33145 27.2928 6.21844 21.9022 7.58815 17.025C3.73772 16.1676 0.914062 12.7454 0.914062 8.63822C0.914062 3.93247 4.7645 0.0820312 9.47025 0.0820312C13.7488 0.0820312 17.2584 3.16238 17.9402 7.26851C22.5607 6.15549 27.6094 7.43897 31.2031 11.0337L31.7165 11.5471L25.3844 17.8793L24.871 17.3659C22.8174 15.3123 19.4804 15.3123 17.4268 17.3659C15.3732 19.4194 15.3732 22.7565 17.4268 24.81L31.6323 39.0145L25.3002 45.3467L18.6261 38.6726L12.3801 32.3395Z" fill="white"></path><path d="M19.4766 25.3232L33.6811 11.1187C37.4453 7.3545 42.9231 6.15525 47.7131 7.52596C48.3117 3.3346 51.9044 0.166016 56.184 0.166016C60.8898 0.166016 64.7402 4.01645 64.7402 8.7222C64.7402 13.086 61.4884 16.6798 57.2961 17.1932C58.6648 21.9862 57.4665 27.3758 53.7023 31.141L53.1889 31.6544L47.0282 25.3222L47.5416 24.8088C49.5952 22.7552 49.5952 19.4182 47.5416 17.3646C45.4881 15.3111 42.151 15.3111 40.0974 17.3646L25.894 31.5691L19.4766 25.3232Z" fill="white"></path><path d="M47.9747 57.2394C43.0975 58.6934 37.6216 57.5803 33.7712 53.7299L33.2578 53.2165L39.59 46.8844L40.1034 47.3977C42.1569 49.4513 45.494 49.4513 47.5475 47.3977C49.6011 45.3442 49.6011 42.0071 47.5475 39.9536L33.342 25.7521L39.6742 19.4199L53.9629 33.7086C57.5567 37.3024 58.8401 42.4363 57.7281 47.1421C61.9195 47.7407 65.0881 51.3334 65.0881 55.613C65.0881 60.3188 61.2376 64.1692 56.5319 64.1692C52.2533 64.084 48.7458 61.0888 47.9757 57.2384L47.9747 57.2394Z" fill="white"></path><path d="M45.4949 39.4415L31.2894 53.644C27.6094 57.3239 22.4755 58.5212 17.856 57.4092C17.0007 61.2596 13.5774 64.0833 9.47025 64.0833C4.7645 64.0843 0.914062 60.2338 0.914062 55.5291C0.914062 51.5082 3.73772 48.0849 7.50192 47.2296C6.30367 42.4366 7.50192 37.3027 11.1819 33.6247L11.6953 33.1113L18.0274 39.4435L17.5141 39.9569C15.4605 42.0104 15.4605 45.3475 17.5141 47.4011C19.5676 49.4546 22.9047 49.4546 24.9582 47.4011L39.1617 33.1976L45.4949 39.4415Z" fill="white"></path></svg> 