<?xml version="1.0" encoding="UTF-8"?> <svg xmlns="http://www.w3.org/2000/svg" width="76" height="76" viewBox="0 0 76 76"><path id="next-js-icon" d="M35.511.02c-.163.015-.683.067-1.152.1A38.092,38.092,0,0,0,7.05,15.872a37.611,37.611,0,0,0-6.709,16.6A29.08,29.08,0,0,0,0,38.007a29.081,29.081,0,0,0,.342,5.534,38.154,38.154,0,0,0,25.995,30.7,40.177,40.177,0,0,0,8.023,1.664,69.994,69.994,0,0,0,7.281,0,38.372,38.372,0,0,0,13.692-4c.654-.334.78-.423.691-.5-.06-.045-2.845-3.781-6.189-8.3L43.758,54.9,36.143,43.631c-4.19-6.195-7.637-11.261-7.667-11.261s-.059,5-.074,11.112c-.022,10.7-.03,11.135-.163,11.387a1.35,1.35,0,0,1-.654.676c-.238.119-.446.141-1.568.141H24.732l-.342-.215a1.39,1.39,0,0,1-.5-.542l-.156-.334L23.751,39.7l.022-14.9.23-.29a2.037,2.037,0,0,1,.55-.453c.3-.149.423-.163,1.709-.163,1.516,0,1.768.059,2.162.49.111.119,4.235,6.329,9.167,13.809S49.27,55.887,52.583,60.9L58.6,70.015l.3-.2a39.008,39.008,0,0,0,7.808-6.849,37.824,37.824,0,0,0,8.945-19.424A29.081,29.081,0,0,0,76,38.007a29.08,29.08,0,0,0-.342-5.534,38.154,38.154,0,0,0-25.995-30.7A39.9,39.9,0,0,0,41.752.117C41.039.043,36.128-.039,35.511.02ZM51.068,23a1.5,1.5,0,0,1,.75.876c.059.193.074,4.323.059,13.631l-.022,13.356L49.5,47.255l-2.363-3.61V33.937c0-6.277.03-9.805.074-9.976a1.515,1.515,0,0,1,.736-.936c.3-.156.416-.171,1.582-.171C50.63,22.854,50.823,22.869,51.068,23Z" fill="#fff"></path></svg> 