<?xml version="1.0" encoding="UTF-8"?> <svg xmlns="http://www.w3.org/2000/svg" width="141.656" height="40" viewBox="0 0 141.656 40"><g id="nodejs-icon" transform="translate(-0.281 -0.065)"><path id="Path_1" data-name="Path 1" d="M130.588,14.259a1.962,1.962,0,0,0-.977.239l-9.392,5.423a1.98,1.98,0,0,0-.977,1.715V32.464a1.982,1.982,0,0,0,.977,1.715l2.453,1.413a4.008,4.008,0,0,0,2.173.578,2.6,2.6,0,0,0,2.772-2.931V22.557a.268.268,0,0,0-.279-.259h-1.177a.269.269,0,0,0-.279.259V33.244c0,.825-.859,1.654-2.253.957l-2.549-1.5a.284.284,0,0,1-.16-.239V21.639a.317.317,0,0,1,.16-.259l9.371-5.4a.276.276,0,0,1,.279,0l9.372,5.4a.319.319,0,0,1,.16.259V32.467a.3.3,0,0,1-.14.259l-9.391,5.4a.289.289,0,0,1-.279,0l-2.413-1.436a.25.25,0,0,0-.239,0,6.224,6.224,0,0,1-1.416.638c-.154.054-.388.137.08.4l3.15,1.857a1.939,1.939,0,0,0,.977.259,1.907,1.907,0,0,0,.978-.259l9.391-5.4a1.983,1.983,0,0,0,.977-1.715V21.642a1.98,1.98,0,0,0-.977-1.715L131.569,14.5a1.96,1.96,0,0,0-.978-.239ZM133.1,22c-2.674,0-4.267,1.138-4.267,3.031,0,2.051,1.581,2.617,4.148,2.871,3.07.3,3.31.752,3.31,1.356,0,1.048-.836,1.5-2.812,1.5-2.482,0-3.027-.62-3.21-1.857a.269.269,0,0,0-.259-.239h-1.219a.285.285,0,0,0-.2.083.282.282,0,0,0-.083.2c0,1.58.859,3.45,4.965,3.45,2.971,0,4.685-1.164,4.685-3.21,0-2.023-1.384-2.57-4.267-2.951-2.909-.388-3.19-.574-3.19-1.256,0-.563.236-1.316,2.393-1.316,1.927,0,2.639.416,2.931,1.715a.274.274,0,0,0,.259.222h1.219a.3.3,0,0,0,.2-.1.263.263,0,0,0,.08-.2c-.189-2.238-1.681-3.29-4.686-3.29Z" fill="#fff"></path><path id="Path_2" data-name="Path 2" d="M75.373.065a.6.6,0,0,0-.6.6V15.917a.4.4,0,0,1-.2.359.416.416,0,0,1-.419,0L71.664,14.84a1.194,1.194,0,0,0-1.2,0l-9.949,5.742a1.225,1.225,0,0,0-.6,1.057V33.124a1.194,1.194,0,0,0,.6,1.037l9.95,5.743a1.192,1.192,0,0,0,1.2,0l9.95-5.743a1.194,1.194,0,0,0,.6-1.037V4.491a1.215,1.215,0,0,0-.618-1.057L75.672.124A.587.587,0,0,0,75.373.065ZM11.367,14.4a1.124,1.124,0,0,0-.538.14L.879,20.283a1.192,1.192,0,0,0-.6,1.037L.3,36.734a.588.588,0,0,0,.3.518.579.579,0,0,0,.6,0l5.9-3.39a1.217,1.217,0,0,0,.618-1.036v-7.2a1.189,1.189,0,0,1,.6-1.036l2.512-1.455a1.2,1.2,0,0,1,1.2,0l2.511,1.455a1.19,1.19,0,0,1,.6,1.037v7.2a1.225,1.225,0,0,0,.618,1.036l5.9,3.39a.579.579,0,0,0,.6,0,.6.6,0,0,0,.3-.518l.02-15.413a1.186,1.186,0,0,0-.6-1.037l-9.949-5.742a1.117,1.117,0,0,0-.538-.14h-.12Zm89.409.14a1.191,1.191,0,0,0-.6.16l-9.949,5.743a1.194,1.194,0,0,0-.6,1.037V32.965A1.2,1.2,0,0,0,90.247,34l9.87,5.626a1.2,1.2,0,0,0,1.176.019l5.982-3.33a.6.6,0,0,0,.319-.518.592.592,0,0,0-.3-.518l-10.01-5.743A.644.644,0,0,1,96.966,29V25.407a.615.615,0,0,1,.319-.518l3.11-1.795a.6.6,0,0,1,.6,0l3.112,1.795a.6.6,0,0,1,.3.518v2.831a.593.593,0,0,0,.079.3.6.6,0,0,0,.22.219.593.593,0,0,0,.6,0l5.962-3.469a1.2,1.2,0,0,0,.6-1.036V21.48a1.2,1.2,0,0,0-.6-1.037l-9.89-5.743a1.184,1.184,0,0,0-.6-.16Zm-29.75,8.574a.335.335,0,0,1,.16.04l3.41,1.974a.309.309,0,0,1,.16.259v3.948a.307.307,0,0,1-.16.259l-3.41,1.974a.3.3,0,0,1-.3,0L67.477,29.6a.309.309,0,0,1-.16-.259V25.388a.31.31,0,0,1,.16-.259l3.41-1.974A.262.262,0,0,1,71.026,23.115Z" fill="#fff"></path><path id="Path_3" data-name="Path 3" d="M41.256,14.481a1.194,1.194,0,0,0-.6.16l-9.95,5.723a1.225,1.225,0,0,0-.6,1.057V32.9a1.192,1.192,0,0,0,.6,1.036l9.95,5.743a1.192,1.192,0,0,0,1.2,0l9.95-5.743a1.194,1.194,0,0,0,.6-1.037V21.42a1.223,1.223,0,0,0-.6-1.057l-9.95-5.723a1.184,1.184,0,0,0-.6-.16Zm59.5,10.249a.251.251,0,0,0-.119.019l-1.915,1.117a.233.233,0,0,0-.12.2v2.194a.234.234,0,0,0,.12.2l1.915,1.1a.205.205,0,0,0,.109.031.209.209,0,0,0,.11-.031l1.914-1.1a.234.234,0,0,0,.119-.2V26.065a.235.235,0,0,0-.119-.2l-1.914-1.117a.166.166,0,0,0-.1-.019Z" fill="#fff"></path></g></svg> 