<?xml version="1.0" encoding="UTF-8"?> <svg xmlns="http://www.w3.org/2000/svg" width="67" height="89" viewBox="0 0 67 89" fill="white"><path fill-rule="evenodd" clip-rule="evenodd" d="M66.6037 43.138C65.2262 20.6552 40.7379 1.20059 30.6498 0.985853C20.5577 0.768384 1.697 24.5792 0.933346 48.7717C0.218259 71.4555 19.5781 87.0107 27.9123 88.9844C28.1443 78.312 28.9984 39.0184 29.1414 34.4365C29.4423 25.073 29.9023 10.5039 31.4661 10.0197C32.3633 9.74207 33.5857 17.9321 33.436 22.7725C33.4049 23.6957 33.3941 26.6869 33.3941 30.9324C35.082 29.2158 36.8441 27.4337 37.9153 26.3805C40.8526 23.4946 42.1519 23.8379 40.7433 26.412C39.8758 27.9958 36.1452 33.2616 33.4022 37.0776C33.4171 44.7738 33.4522 54.4601 33.4886 63.4857C37.3622 58.9517 42.1047 53.5163 44.5953 51.0996C49.8208 46.0349 50.3767 46.6736 47.909 51.99C46.3938 55.2479 38.9839 63.9385 33.5156 70.7922C33.5493 78.8016 33.5763 85.535 33.5817 88.7491C48.2517 85.5226 67.9516 65.2118 66.6037 43.138Z" fill="white"></path></svg> 