<?xml version="1.0" encoding="UTF-8"?> <svg xmlns="http://www.w3.org/2000/svg" id="reactjs-icon" width="94" height="84" viewBox="0 0 94 84"><path id="Path_1" data-name="Path 1" d="M77.284,27.226q-1.5-.514-3.025-.958.253-1.03.466-2.073c2.291-11.167.793-20.164-4.32-23.125-4.9-2.842-12.924.12-21.024,7.2q-1.194,1.048-2.34,2.159-.764-.738-1.567-1.444c-8.489-7.572-17-10.761-22.1-7.79-4.9,2.848-6.351,11.3-4.289,21.889q.309,1.57.7,3.126c-1.2.344-2.368.711-3.48,1.1C6.356,30.794,0,36.256,0,41.92,0,47.772,6.823,53.64,17.188,57.2q1.261.43,2.546.8-.417,1.666-.738,3.37c-1.958,10.4-.431,18.659,4.455,21.489,5.046,2.922,13.512-.08,21.764-7.322q.979-.86,1.958-1.815,1.238,1.2,2.546,2.328c7.99,6.9,15.879,9.693,20.757,6.855,5.042-2.932,6.682-11.8,4.553-22.6q-.245-1.236-.564-2.524.893-.265,1.749-.548C86.984,53.648,94,47.851,94,41.925,94,36.234,87.436,30.737,77.284,27.226ZM52.023,11.313C58.961,5.246,65.447,2.852,68.4,4.563c3.147,1.823,4.371,9.175,2.393,18.818q-.2.942-.423,1.878a95.35,95.35,0,0,0-12.568-1.994,94.412,94.412,0,0,0-7.945-9.96q1.054-1.024,2.158-1.992ZM27.754,46.759q1.275,2.473,2.665,4.885,1.416,2.461,2.951,4.85a85.07,85.07,0,0,1-8.663-1.4C25.538,52.4,26.56,49.605,27.754,46.759Zm0-9.485c-1.175-2.785-2.17-5.525-2.986-8.17,2.683-.6,5.542-1.1,8.522-1.468q-1.5,2.343-2.883,4.755t-2.659,4.883Zm2.135,4.744q1.856-3.88,4-7.611t4.557-7.287c2.8-.212,5.663-.324,8.559-.324s5.781.112,8.575.326q2.391,3.55,4.529,7.262t4.052,7.576q-1.888,3.894-4.042,7.642-2.136,3.729-4.5,7.309c-2.791.2-5.679.3-8.616.3s-5.771-.092-8.511-.271q-2.434-3.57-4.594-7.319t-4.01-7.607Zm33.705,9.6q1.42-2.469,2.726-5a86.54,86.54,0,0,1,3.157,8.306,84.921,84.921,0,0,1-8.771,1.5Q62.2,54.049,63.594,51.617Zm2.687-14.341q-1.3-2.483-2.7-4.907-1.371-2.391-2.857-4.722c3,.381,5.875.887,8.571,1.505A86.44,86.44,0,0,1,66.281,37.276ZM47.043,16.188A86.262,86.262,0,0,1,52.575,22.9q-5.552-.265-11.111,0C43.291,20.474,45.161,18.227,47.043,16.188ZM25.391,4.683c3.145-1.829,10.1.785,17.428,7.315.468.418.94.856,1.41,1.309a96.4,96.4,0,0,0-8,9.952,97.55,97.55,0,0,0-12.545,1.963q-.358-1.444-.646-2.909C21.265,13.24,22.438,6.4,25.391,4.683ZM20.806,54.111q-1.175-.336-2.32-.728A33.972,33.972,0,0,1,7.52,47.533c-2.326-2-3.505-4-3.505-5.613,0-3.437,5.1-7.821,13.614-10.794q1.6-.559,3.235-1.022a97,97,0,0,0,4.582,11.923A98.751,98.751,0,0,0,20.806,54.111ZM42.569,72.5a34.015,34.015,0,0,1-10.524,6.618c-2.894,1.026-5.2,1.056-6.591.249-2.965-1.717-4.2-8.349-2.516-17.244q.3-1.57.685-3.14A93.98,93.98,0,0,0,36.29,60.822a98.338,98.338,0,0,0,8.068,10.009Q43.483,71.693,42.569,72.5Zm4.586-4.557c-1.9-2.063-3.8-4.345-5.655-6.8q2.7.106,5.5.106,2.873,0,5.679-.126A86.192,86.192,0,0,1,47.155,67.938Zm24.384,5.611c-.56,3.03-1.686,5.052-3.078,5.86-2.963,1.723-9.3-.516-16.128-6.422-.783-.675-1.567-1.4-2.364-2.159A95.069,95.069,0,0,0,57.847,60.78a93.366,93.366,0,0,0,12.729-1.972q.288,1.166.509,2.285A34.263,34.263,0,0,1,71.539,73.549ZM74.946,53.4c-.513.171-1.042.336-1.578.5a94.985,94.985,0,0,0-4.76-11.96,94.638,94.638,0,0,0,4.574-11.787c.962.281,1.9.575,2.794.887,8.7,3.007,14.006,7.458,14.006,10.879C89.982,45.57,84.25,50.308,74.946,53.4Z" fill="#fff"></path><path id="Path_2" data-name="Path 2" d="M46.472,50a8.483,8.483,0,1,0-3.247-.65A8.5,8.5,0,0,0,46.472,50Z" fill="#fff"></path></svg> 