<?xml version="1.0" encoding="UTF-8"?> <svg xmlns="http://www.w3.org/2000/svg" width="71" height="81" viewBox="0 0 71 81" fill="none"><path d="M61.9359 15.773C61.8772 15.4192 61.5884 15.148 61.2309 15.1142C60.9497 15.068 54.7684 14.6442 54.7684 14.6442L50.0559 9.93172C49.6309 9.46172 48.6909 9.59922 48.3359 9.69672C48.2897 9.69672 47.3959 9.97797 45.9334 10.453C44.5122 6.34047 41.9959 2.57047 37.5634 2.57047H37.1847C35.9147 0.924219 34.3597 0.167969 33.0472 0.167969C22.7272 0.214219 17.8097 13.0842 16.2547 19.6605L9.04219 21.873C6.82969 22.578 6.74844 22.6292 6.45094 24.7392L0.367188 71.6367L45.9522 80.168L70.6559 74.843C70.6559 74.7967 61.9809 16.2205 61.9359 15.773ZM43.4059 11.243C42.2597 11.6217 40.9522 11.9992 39.5434 12.4242V11.5742C39.5851 9.45317 39.2673 7.34037 38.6034 5.32547C40.9134 5.68047 42.4659 8.27172 43.4072 11.2417L43.4059 11.243ZM35.8209 5.87047C36.5747 8.09297 36.9247 10.433 36.8534 12.7792V13.2042L28.8847 15.658C30.4447 9.83297 33.3209 6.95547 35.8209 5.87047ZM32.7584 3.00422C33.2299 3.01425 33.6881 3.16151 34.0772 3.42797C30.7522 4.97547 27.2372 8.88547 25.7297 16.7117L19.4234 18.6442C21.2022 12.7055 25.3522 2.99297 32.7547 2.99297L32.7584 3.00422Z" fill="white"></path><path d="M61.2269 15.1141C60.9456 15.0679 54.7644 14.6441 54.7644 14.6441L50.0519 9.93164C49.8769 9.75414 49.6394 9.65289 49.3931 9.65039L45.9531 80.1679L70.6569 74.8429L61.9319 15.8204C61.9036 15.6436 61.8202 15.4803 61.6936 15.3537C61.567 15.2271 61.4037 15.1437 61.2269 15.1154V15.1141Z" fill="white"></path><path d="M37.5678 28.7823L34.5003 37.8348C32.6466 36.9373 30.6203 36.4548 28.5603 36.4185C23.7503 36.4185 23.5153 39.4335 23.5153 40.191C23.5153 44.3135 34.3103 45.896 34.3103 55.6073C34.3103 63.2448 29.4541 68.1448 22.9353 68.1448C15.1103 68.1448 11.1016 63.2885 11.1016 63.2885L13.1828 56.351C13.1828 56.351 17.2828 59.8885 20.7741 59.8885C21.1914 59.9044 21.6076 59.8355 21.9976 59.6859C22.3875 59.5363 22.7431 59.3091 23.0427 59.0182C23.3423 58.7272 23.5798 58.3785 23.7407 57.9931C23.9017 57.6077 23.9827 57.1937 23.9791 56.776C23.9791 51.351 15.1166 51.1173 15.1166 42.2535C15.1166 34.801 20.4891 27.541 31.2841 27.541C35.5266 27.6035 37.5566 28.7785 37.5566 28.7785L37.5678 28.7823Z" fill="#000000"></path></svg> 