<?xml version="1.0" encoding="UTF-8"?> <svg xmlns="http://www.w3.org/2000/svg" width="71" height="50" viewBox="0 0 71 50" fill="none"><path d="M52.6233 14.4411L46.4115 34.0189C46.4115 32.5195 42.1275 0.046875 42.1275 0.046875C32.2743 0.046875 27.0478 7.02976 24.3061 14.4411L16.7234 34.0617C16.7234 32.648 15.6524 14.6124 15.6524 14.6124C15.2867 10.7081 13.5018 7.07347 10.6358 4.39697C7.76981 1.72046 4.02176 0.18795 0.101562 0.0897077L8.15546 49.2699C18.437 49.2699 24.0062 42.287 26.8765 34.8757L33.3025 18.1681C33.3025 18.8536 37.5865 49.2699 37.5865 49.2699C41.7907 49.2645 45.884 47.9204 49.2732 45.4325C52.6623 42.9446 55.1711 39.4421 56.436 35.4326L71.0016 0.046875C60.72 0.046875 55.3222 7.02976 52.5804 14.4411H52.6233Z" fill="white"></path></svg> 