<?xml version="1.0" encoding="UTF-8"?> <svg xmlns="http://www.w3.org/2000/svg" width="116" height="46" viewBox="0 0 116 46" fill="none"><path d="M0.164062 0.431295C0.164062 0.431295 4.75582 -0.147897 7.81699 2.56386C9.70648 4.23687 10.2572 6.90305 10.2572 6.90305L16.5087 31.2424L21.7081 11.322C22.2132 9.20462 23.1266 6.58592 24.5699 4.81606C26.4119 2.56196 30.151 2.41954 30.5498 2.41954C30.9486 2.41954 34.6858 2.56196 36.5259 4.81606C37.9691 6.58592 38.8825 9.20272 39.3896 11.322L44.589 31.2424L50.8386 6.90305C50.8386 6.90305 51.3912 4.23687 53.2807 2.56386C56.3418 -0.147897 60.9317 0.431295 60.9317 0.431295L48.9605 45.9178C48.9605 45.9178 45.0125 46.2045 43.0356 45.1924C40.4397 43.8631 39.2073 42.8376 37.6349 36.6469C36.8402 33.4806 36.0553 30.3118 35.2802 27.1406L34.9858 25.9461C34.156 22.5621 33.328 19.1914 32.745 16.8462L32.4602 15.7068C32.1981 14.6737 32.0177 13.9787 31.9531 13.7698C31.7765 13.1982 31.5657 11.8366 30.5479 11.8366C29.5528 11.8366 29.323 13.2001 29.1426 13.7698C29.0762 13.9787 28.8958 14.6718 28.6356 15.7068L28.3508 16.8462C27.7444 19.2832 27.1431 21.7215 26.5467 24.1611L26.2543 25.3498C25.3347 29.1188 24.4042 32.8852 23.4628 36.6488C21.8904 42.8376 20.656 43.865 18.0601 45.1924C16.0833 46.2045 12.1353 45.9178 12.1353 45.9178L0.164062 0.431295ZM72.3218 7.97598V9.6186H72.3256V37.0761C72.3047 42.7104 71.7597 43.9618 69.3898 45.2588C67.5478 46.2672 64.7297 45.8855 64.7297 45.8855V15.1276C64.7297 13.5837 65.2082 12.5715 66.9724 11.6638C68.0263 11.1207 69.0081 10.7048 70.0298 10.0896C71.4255 9.254 72.1338 8.26083 72.2896 8.02535L72.3218 7.97598ZM76.1236 0.583214C76.1236 0.583214 82.3086 -0.512503 85.3717 2.38725C87.0941 4.01848 88.9988 6.7986 89.4298 7.44046L89.5115 7.562L89.521 7.57719L94.9141 15.6593C95.1743 16.079 95.5161 16.5366 96.063 16.5366C96.608 16.5366 96.9517 16.0809 97.2138 15.6593L102.605 7.57719L102.615 7.562L102.696 7.44046C103.127 6.7986 105.032 4.01848 106.756 2.38535C109.817 -0.512503 116.002 0.581315 116.002 0.581315L101.348 23.2476L115.963 45.8399C115.963 45.8399 109.635 46.6869 106.572 43.7871C104.612 41.9337 102.605 38.9162 102.605 38.9162L97.2119 30.836C96.9517 30.4144 96.608 29.9568 96.063 29.9568C95.5161 29.9568 95.1743 30.4125 94.9122 30.836L89.521 38.9162C89.521 38.9162 87.6239 41.9337 85.666 43.7871C82.603 46.6869 76.1616 45.8399 76.1616 45.8399L90.7762 23.2476L76.1236 0.583214ZM72.3066 0.380022H72.3256C72.3256 3.39941 72.0408 5.19396 70.2178 6.58782C69.3715 7.23823 68.4382 7.76686 67.4452 8.15828C66.4383 8.55109 65.5164 9.13391 64.7297 9.87497C64.7297 4.37549 65.533 2.38346 67.6921 1.20418C69.0347 0.471173 71.2394 0.387618 72.0313 0.380022H72.3066Z" fill="white"></path></svg> 